<svg fill="none" width="24" height="24"><path class="fsb-top" stroke="#212c56" stroke-width="1.2" d="M9.4 20a1.4 1.4 0 11-2.8 0 1.4 1.4 0 012.8 0zm10 0a1.4 1.4 0 11-2.8 0 1.4 1.4 0 012.8 0z"/><path class="fsb-bottom" fill="#2 12c56" d="M2 2.4a.6.6 0 000 1.2V2.4zm2.5.6l.537-.268L4.87 2.4H4.5V3zM9 11.5l-.424.424.175.176H9v-.6zm11 5.1a.6.6 0 100-1.2v1.2zm.906-11.448l.511.315-.51-.315zm-3.613 5.872l-.511-.314.51.314zM2 3.6h2.5V2.4H2v1.2zm7 8.5h7.441v-1.2H9v1.2zm8.804-.761l3.613-5.872-1.022-.629-3.613 5.872 1.022.629zm-13.84-8.07l1 2 1.073-.537-1-2-1.074.536zM20.82 4.4H5.5v1.2h15.321V4.4zM7.618 16.6H20v-1.2H7.618v1.2zM4.963 5.268l3 6 1.074-.536-3-6-1.074.536zm3.113 6.156l.5.5.848-.848-.5-.5-.848.848zm-.816 3.397l1.777-3.553-1.074-.536-1.776 3.553 1.073.536zm.358.579a.4.4 0 01-.358-.579l-1.073-.537A1.6 1.6 0 007.618 16.6v-1.2zm13.8-9.933A.7.7 0 0020.82 4.4v1.2a.5.5 0 01-.426-.762l1.022.629zM16.44 12.1a1.6 1.6 0 001.363-.761l-1.022-.63a.4.4 0 01-.34.191v1.2z"/></svg>