<svg width="160" height="128" fill="none" xmlns="http://www.w3.org/2000/svg"><circle cx="33.275" cy="94.382" r="32" stroke="#E12E55" stroke-width="2"/><path d="M18.75 81.565l-.743.67.743.823.743-.824-.743-.67zm-8.95 6.94l-.927.375.927-.375zm17.9 0l-.927-.376.927.376zM18.75 97l-.158.988.158.025.158-.025L18.75 97zm29.64-15.436l-.742.67.743.823.742-.824-.742-.67zm-8.95 6.94l.927-.376-.927.376zm17.9 0l-.926-.376.927.376zM48.39 97l-.157.988.158.025.158-.025L48.39 97zM19.494 80.895c-2.39-2.65-5.975-3.032-8.525-1.476-1.281.782-2.277 2.042-2.704 3.688-.427 1.64-.273 3.596.609 5.773l1.854-.75c-.757-1.87-.824-3.381-.528-4.52.295-1.134.964-1.967 1.81-2.484 1.708-1.041 4.236-.846 5.998 1.108l1.486-1.339zm9.134 7.985c.882-2.177 1.036-4.133.61-5.773-.428-1.646-1.424-2.906-2.705-3.688-2.55-1.556-6.136-1.174-8.525 1.476l1.486 1.34c1.762-1.955 4.29-2.15 5.997-1.109.847.517 1.516 1.35 1.81 2.483.297 1.14.23 2.65-.527 4.52l1.854.751zm-9.719 9.109c.573-.092 1.324-.4 2.11-.825a17.51 17.51 0 002.67-1.813c1.862-1.522 3.82-3.71 4.94-6.47l-1.855-.752c-.956 2.362-2.663 4.294-4.35 5.674a15.452 15.452 0 01-2.36 1.603c-.72.39-1.234.57-1.471.608l.316 1.975zM8.873 88.88c1.119 2.762 3.077 4.949 4.94 6.471.934.764 1.86 1.373 2.67 1.813.785.426 1.536.733 2.109.825l.316-1.975c-.237-.038-.751-.217-1.472-.608a15.446 15.446 0 01-2.358-1.603c-1.688-1.38-3.395-3.311-4.351-5.674l-1.854.751zm40.26-7.985c-2.389-2.65-5.974-3.032-8.524-1.476-1.282.782-2.277 2.042-2.705 3.688-.426 1.64-.272 3.596.61 5.773l1.853-.75c-.757-1.87-.823-3.381-.527-4.52.295-1.134.963-1.967 1.81-2.484 1.707-1.041 4.236-.846 5.998 1.108l1.485-1.339zm9.135 7.985c.882-2.177 1.035-4.133.609-5.773-.428-1.646-1.423-2.906-2.704-3.688-2.55-1.556-6.136-1.174-8.525 1.476l1.485 1.34c1.762-1.955 4.29-2.15 5.998-1.109.847.517 1.516 1.35 1.81 2.483.296 1.14.23 2.65-.527 4.52l1.854.751zm-9.72 9.109c.574-.092 1.325-.4 2.11-.825.81-.44 1.736-1.049 2.67-1.813 1.863-1.522 3.821-3.71 4.94-6.47l-1.854-.752c-.957 2.362-2.663 4.294-4.351 5.674a15.452 15.452 0 01-2.358 1.603c-.721.39-1.235.57-1.472.608l.316 1.975zM38.515 88.88c1.118 2.762 3.076 4.949 4.939 6.471a17.51 17.51 0 002.67 1.813c.785.426 1.536.733 2.11.825l.316-1.975c-.238-.038-.752-.217-1.472-.608a15.451 15.451 0 01-2.358-1.603c-1.689-1.38-3.395-3.311-4.352-5.674l-1.853.751z" fill="#E12E55"/><mask id="path-3-inside-1_74_821" fill="#fff"><path fill-rule="evenodd" clip-rule="evenodd" d="M17.75 103.47c1.012 7.598 7.518 13.46 15.393 13.46 7.875 0 14.381-5.862 15.394-13.46H17.749z"/></mask><path d="M17.75 103.47v-2h-2.285l.302 2.264 1.982-.264zm30.787 0l1.982.264.302-2.264h-2.284v2zm-15.394 11.46c-6.86 0-12.53-5.106-13.411-11.724l-3.965.528c1.143 8.579 8.485 15.196 17.376 15.196v-4zm13.411-11.724c-.881 6.618-6.552 11.724-13.411 11.724v4c8.891 0 16.233-6.617 17.376-15.196l-3.965-.528zm1.983-1.736H17.749v4h30.788v-4z" fill="#E12E55" mask="url(#path-3-inside-1_74_821)"/><mask id="path-5-inside-2_74_821" fill="#fff"><path fill-rule="evenodd" clip-rule="evenodd" d="M38.94 115.812c-.874-4.181-4.58-7.32-9.02-7.32a9.207 9.207 0 00-7.619 4.027 15.48 15.48 0 0010.842 4.411c2.05 0 4.006-.397 5.797-1.118z"/></mask><path d="M38.94 115.812l.747 1.855 1.554-.626-.343-1.639-1.958.41zm-16.638-3.293l-1.652-1.127-.947 1.387 1.202 1.172 1.396-1.432zm7.617-2.027a7.22 7.22 0 017.064 5.729l3.915-.819c-1.065-5.088-5.573-8.91-10.979-8.91v4zm-5.966 3.155a7.206 7.206 0 015.966-3.155v-4a11.207 11.207 0 00-9.27 4.9l3.304 2.255zm-3.048.304a17.478 17.478 0 0012.238 4.979v-4a13.478 13.478 0 01-9.445-3.843l-2.793 2.864zm12.238 4.979c2.31 0 4.52-.448 6.544-1.263l-1.494-3.711a13.492 13.492 0 01-5.05.974v4z" fill="#E12E55" mask="url(#path-5-inside-2_74_821)"/><circle cx="132.358" cy="94.382" r="26.366" stroke="#E12E55" stroke-width="2"/><mask id="path-8-inside-3_74_821" fill="#fff"><path fill-rule="evenodd" clip-rule="evenodd" d="M115.366 98.32c1.11 8.332 8.245 14.76 16.882 14.76 8.636 0 15.771-6.428 16.881-14.76h-33.763z"/></mask><path d="M115.366 98.32v-2h-2.284l.301 2.263 1.983-.264zm33.763 0l1.983.263.301-2.264h-2.284v2zm-16.881 12.76c-7.621 0-13.92-5.673-14.9-13.025l-3.965.528c1.241 9.314 9.212 16.497 18.865 16.497v-4zm14.899-13.025c-.98 7.352-7.279 13.025-14.899 13.025v4c9.652 0 17.623-7.183 18.864-16.497l-3.965-.528zm1.982-1.736h-33.763v4h33.763v-4z" fill="#E12E55" mask="url(#path-8-inside-3_74_821)"/><mask id="path-10-inside-4_74_821" fill="#fff"><path fill-rule="evenodd" clip-rule="evenodd" d="M138.605 111.854c-.959-4.584-5.024-8.027-9.892-8.027-3.472 0-6.535 1.75-8.355 4.417a16.979 16.979 0 0011.89 4.836 16.98 16.98 0 006.357-1.226z"/></mask><path d="M138.605 111.854l.747 1.855 1.554-.625-.343-1.64-1.958.41zm-18.247-3.61l-1.652-1.128-.946 1.387 1.202 1.173 1.396-1.432zm8.355-2.417a8.11 8.11 0 017.935 6.436l3.915-.819c-1.149-5.492-6.016-9.617-11.85-9.617v4zm-6.703 3.544a8.097 8.097 0 016.703-3.544v-4c-4.161 0-7.83 2.1-10.007 5.289l3.304 2.255zm-3.048.305a18.978 18.978 0 0013.286 5.404v-4a14.975 14.975 0 01-10.493-4.268l-2.793 2.864zm13.286 5.404c2.507 0 4.906-.486 7.104-1.371l-1.494-3.71a14.98 14.98 0 01-5.61 1.081v4z" fill="#E12E55" mask="url(#path-10-inside-4_74_821)"/><path d="M143.523 89.406c0 1.079-.275 2.008-.668 2.635-.401.642-.828.842-1.132.842-.305 0-.732-.2-1.133-.842-.393-.627-.668-1.556-.668-2.635 0-1.078.275-2.007.668-2.635.401-.64.828-.841 1.133-.841.304 0 .731.2 1.132.841.393.628.668 1.557.668 2.635zm-18.727 0c0 1.079-.276 2.008-.669 2.635-.401.642-.827.842-1.132.842-.305 0-.731-.2-1.133-.842-.392-.627-.668-1.556-.668-2.635 0-1.078.276-2.007.668-2.635.402-.64.828-.841 1.133-.841.305 0 .731.2 1.132.841.393.628.669 1.557.669 2.635z" stroke="#E12E55" stroke-width="2"/><circle cx="84.569" cy="47.191" r="46.191" fill="#fff" stroke="#E12E55" stroke-width="2"/><circle cx="50.274" cy="52.387" r="6.966" stroke="#E12E55" stroke-width="2"/><circle cx="118.863" cy="52.387" r="6.966" stroke="#E12E55" stroke-width="2"/><path d="M57.423 39.943c3.843-6.12 11.061-5.65 13.65 0m26.993 0c3.844-6.12 11.062-5.65 13.651 0" stroke="#E12E55" stroke-width="2" stroke-linecap="round"/><path d="M64.145 54.378c9.59 19.22 31.871 19.456 40.847 0" stroke="#E12E55" stroke-width="2" stroke-linecap="round" stroke-linejoin="round"/></svg>