<svg width="158" height="104" fill="none" xmlns="http://www.w3.org/2000/svg"><rect x="1" y="1" width="156" height="102" rx="19" stroke="#E12E55" stroke-width="2"/><path d="M3.413 80.674C10.66 72.175 19.11 62.602 25.281 55.67c3.955-4.442 5.933-6.663 8.398-6.478 2.465.186 4.094 2.686 7.352 7.686l13.86 21.273M3.412 80.674c7.29-5.674 12.314-7.565 22.364-4.413s16.772 14.5 29.113 1.891M3.413 80.674c-.648.76-1.287 1.512-1.913 2.253m53.39-4.775l3.67 5.635c3.457 5.308 5.186 7.961 7.863 8.356 2.676.394 5.096-1.649 9.936-5.734l2.178-1.838m33.238 8.081l-10.402-11.914c-3.664-4.197-5.496-6.295-7.945-6.482-2.449-.186-4.577 1.61-8.835 5.204l-6.056 5.111m33.238 8.081c-4.973-5.696-11.882-8.08-19.42-4.413-7.537 3.668-13.19-1.605-13.818-3.668m33.238 8.081L120.809 103" stroke="#E12E55" stroke-width="2" stroke-linecap="round"/><rect x="56" y="37" width="46" height="30" rx="6" fill="#fff" stroke="#E12E55" stroke-width="2"/><path d="M82.864 51.097c1.846.597 1.846 3.21 0 3.806l-5.999 1.94a2 2 0 01-2.615-1.904v-3.878a2 2 0 012.615-1.903l5.999 1.939z" stroke="#E12E55" stroke-width="2"/><circle cx="131" cy="23" r="12" stroke="#E12E55" stroke-width="2"/></svg>