<svg width="180" height="117" fill="none" xmlns="http://www.w3.org/2000/svg"><path d="M24.578 48.157c4.552 4.703 5.159 7.827 1.329 14.612m18.929 12.62c10.747-4.462 16.781-4.162 27.563 2.324m40.183-65.754c9.084 2.869 14.178 3.954 23.246-.996m19.593 9.298c-2.559 6.71-3.22 10.414.997 16.605" stroke="#E12E55" stroke-width="2" stroke-linecap="round"/><path d="M53.802 33.493c-14.44 5.56-29.97 10.922-48.735 17.004-1.614.523-1.89 2.69-.457 3.598l51.668 32.713a2.004 2.004 0 001.783.179c20.26-7.71 36.628-14.522 51.864-21.683M53.802 33.493c.797.573 37.748 21.446 56.123 31.81m-56.123-31.81a568.278 568.278 0 0027.871-11.571m28.252 43.382a531.556 531.556 0 0024.869-12.498m-53.12-30.884c13.101-5.853 26.498-12.418 41.973-20.459a2.005 2.005 0 011.793-.028l50.245 24.203c1.429.688 1.526 2.686.17 3.508-15.171 9.195-28.267 16.815-41.061 23.66m-53.12-30.884l53.12 30.884" stroke="#E12E55" stroke-width="2" stroke-linecap="round"/><path d="M1 58.795l56.123 35.533C107.943 75.035 134.293 61.44 179 34.22" stroke="#E12E55" stroke-width="2" stroke-linecap="round"/><path d="M1 65.903l56.123 35.534c50.82-19.293 77.17-32.89 121.877-60.109" stroke="#E12E55" stroke-width="2" stroke-linecap="round"/><path d="M1 73.011l56.123 35.534c50.82-19.293 77.17-32.889 121.877-60.108" stroke="#E12E55" stroke-width="2" stroke-linecap="round"/><path d="M1 80.12l56.123 35.533C107.943 96.36 134.293 82.764 179 55.545" stroke="#E12E55" stroke-width="2" stroke-linecap="round"/></svg>