<svg width="31" height="19" fill="none" xmlns="http://www.w3.org/2000/svg"><path d="M19.205 2.5H11.24v13.9h7.965V2.5z" fill="#FF5A00"/><path d="M11.795 9.45c0-2.848 1.38-5.376 3.495-7.009A9.31 9.31 0 009.625.534C4.548.534.44 4.522.44 9.45c0 4.929 4.108 8.917 9.185 8.917a9.31 9.31 0 005.665-1.908 8.807 8.807 0 01-3.495-7.009z" fill="#EB001B"/><path d="M30.141 9.45c0 4.929-4.108 8.917-9.185 8.917a9.31 9.31 0 01-5.665-1.908c2.143-1.636 3.495-4.16 3.495-7.009 0-2.848-1.379-5.376-3.495-7.009A9.295 9.295 0 0120.953.534c5.08 0 9.188 4.014 9.188 8.916z" fill="#F79E1B"/></svg>