<svg width="56" height="17" fill="none" xmlns="http://www.w3.org/2000/svg"><path fill-rule="evenodd" clip-rule="evenodd" d="M8.834 2.107c.435-.002 1.729-.116 2.277 1.688.368 1.215.956 3.205 1.763 5.97h.328c.865-2.915 1.46-4.905 1.783-5.97.554-1.823 1.937-1.688 2.49-1.688h4.271v12.96h-4.352V7.43h-.292l-2.427 7.637h-3.274L8.974 7.424h-.291v7.643H4.33V2.107h4.504zm19.162 0V9.75h.347l2.952-6.285c.573-1.25 1.794-1.358 1.794-1.358H37.3v12.96h-4.444V7.424h-.347l-2.893 6.285c-.573 1.245-1.852 1.358-1.852 1.358h-4.212V2.107h4.443zM52.66 8.266c-.62 1.713-2.566 2.94-4.721 2.94h-4.66v3.861h-4.225V8.266H52.66z" fill="#0F754E"/><path fill-rule="evenodd" clip-rule="evenodd" d="M48.142 2.107h-9.31c.22 2.886 2.767 5.356 5.404 5.356h8.717c.503-2.398-1.229-5.356-4.811-5.356z" fill="url(#paint0_linear_55_559)"/><defs><linearGradient id="paint0_linear_55_559" x1="53.038" y1="5.476" x2="38.831" y2="5.476" gradientUnits="userSpaceOnUse"><stop stop-color="#1F5CD7"/><stop offset="1" stop-color="#02AEFF"/></linearGradient></defs></svg>