<svg width="25" height="24" fill="none" xmlns="http://www.w3.org/2000/svg"><g clip-path="url(#clip0_55_569)"><path d="M12.39 24c6.628 0 12-5.373 12-12s-5.372-12-12-12c-6.627 0-12 5.373-12 12s5.373 12 12 12z" fill="url(#paint0_linear_55_569)"/><path fill-rule="evenodd" clip-rule="evenodd" d="M5.823 11.873L12.82 8.86c3.332-1.386 4.025-1.627 4.476-1.635.1-.002.321.023.465.14a.506.506 0 01.171.325c.016.093.036.306.02.472-.18 1.898-.962 6.502-1.36 8.627-.168.9-.499 1.201-.82 1.23-.697.065-1.226-.46-1.9-.902l-2.679-1.8c-1.184-.78-.416-1.209.259-1.91.177-.184 3.247-2.976 3.306-3.23.008-.032.015-.15-.056-.212-.07-.062-.173-.04-.248-.024-.106.024-1.793 1.14-5.062 3.346-.479.328-.912.489-1.301.48-.428-.01-1.253-.242-1.865-.441-.752-.244-1.35-.374-1.297-.788.027-.217.325-.438.893-.664z" fill="#fff"/></g><defs><linearGradient id="paint0_linear_55_569" x1="12.391" y1="0" x2="12.391" y2="23.822" gradientUnits="userSpaceOnUse"><stop stop-color="#2AABEE"/><stop offset="1" stop-color="#229ED9"/></linearGradient><clipPath id="clip0_55_569"><path fill="#fff" transform="translate(.39)" d="M0 0h24v24H0z"/></clipPath></defs></svg>