<svg width="40" height="19" fill="none" xmlns="http://www.w3.org/2000/svg"><g clip-path="url(#clip0_55_537)" fill="#173AC3"><path d="M16.61 15.741h-3.032l1.897-11.553h3.031L16.61 15.741zM27.601 4.47a7.57 7.57 0 00-2.72-.491c-2.994 0-5.102 1.573-5.115 3.822-.025 1.66 1.51 2.581 2.657 3.134 1.173.566 1.572.935 1.572 1.439-.012.774-.948 1.13-1.82 1.13-1.211 0-1.86-.184-2.846-.614l-.399-.185-.424 2.594c.711.319 2.021.602 3.381.615 3.182 0 5.253-1.55 5.278-3.946.012-1.315-.799-2.323-2.545-3.146-1.06-.529-1.71-.885-1.71-1.426.012-.492.549-.995 1.746-.995a5.217 5.217 0 012.259.442l.274.123.412-2.495zm4.03 7.179c.25-.664 1.211-3.233 1.211-3.233-.012.025.25-.676.399-1.106l.212.996s.574 2.765.699 3.343h-2.52zm3.743-7.46H33.03c-.723 0-1.273.208-1.585.958L26.94 15.741h3.182l.636-1.733h3.893c.087.406.362 1.733.362 1.733h2.807L35.374 4.188zm-24.328-.001l-2.97 7.878-.324-1.597C7.202 8.625 5.48 6.622 3.56 5.626L6.28 15.73h3.206l4.766-11.54h-3.207z"/><path d="M5.319 4.188H.44l-.05.234c3.805.959 6.325 3.27 7.36 6.047l-1.06-5.31c-.174-.737-.71-.946-1.372-.97z"/></g><defs><clipPath id="clip0_55_537"><path fill="#fff" transform="translate(.39 3.979)" d="M0 0h37.43v11.934H0z"/></clipPath></defs></svg>