<svg width="207" height="40" fill="none" xmlns="http://www.w3.org/2000/svg"><path d="M2.025 17.916c0-5.497 2.964-8.246 8.892-8.246 3.066 0 5.46.418 7.182 1.254.608.279.988.545 1.14.798.178.253.266.697.266 1.33v17.252c0 2.635-.709 4.7-2.128 6.194-1.393 1.495-3.572 2.242-6.536 2.242-3.926 0-6.65-1.178-8.17-3.534-.608-.988-.405-1.735.608-2.242l2.128-1.102c.532-.279.95-.38 1.254-.304.304.076.621.342.95.798.684.963 1.723 1.444 3.116 1.444 2.027 0 3.04-1.026 3.04-3.078v-1.634c-1.19.253-2.368.38-3.534.38-5.472 0-8.208-2.622-8.208-7.866v-3.686zm11.59-2.85a11.183 11.183 0 00-2.394-.266c-2.305 0-3.458 1.039-3.458 3.116v3.648c0 .887.28 1.57.836 2.052.558.481 1.343.722 2.356.722.938 0 1.875-.089 2.812-.266v-8.778c0-.127-.05-.203-.152-.228zm9.46-1.444c1.394-2.635 4.104-3.952 8.132-3.952 5.65 0 8.474 2.673 8.474 8.018v9.652c0 .659-.101 1.14-.304 1.444-.177.279-.544.532-1.102.76-1.52.684-3.914 1.026-7.182 1.026-3.293 0-5.573-.507-6.84-1.52-1.241-1.013-1.862-2.597-1.862-4.75 0-2.33.672-3.952 2.014-4.864 1.368-.912 3.648-1.368 6.84-1.368.988 0 1.888.025 2.698.076v-.836c0-1.875-.975-2.812-2.926-2.812-1.393 0-2.444.469-3.154 1.406-.329.43-.608.697-.836.798-.202.076-.57.013-1.102-.19l-2.09-.874c-.962-.405-1.216-1.077-.76-2.014zm10.868 8.892c-.228 0-.722-.013-1.482-.038s-1.33-.038-1.71-.038c-1.013 0-1.71.165-2.09.494-.354.304-.532.747-.532 1.33 0 .608.178 1.077.532 1.406.355.304 1.026.456 2.014.456 1.343 0 2.344-.05 3.002-.152.178-.05.266-.14.266-.266v-3.192zM49.277 5.68c.506 0 .86.101 1.064.304.202.203.304.57.304 1.102v3.154h3.534c.506 0 .86.101 1.064.304.202.203.304.57.304 1.102v2.28c0 .532-.102.9-.304 1.102-.203.203-.558.304-1.064.304h-3.534v6.384c0 1.419.253 2.369.76 2.85.506.456 1.418.684 2.736.684.532 0 .899.101 1.102.304.202.203.304.583.304 1.14v2.394c0 .557-.102.925-.304 1.102-.203.203-.57.317-1.102.342-3.32.101-5.688-.481-7.106-1.748-1.42-1.267-2.128-3.547-2.128-6.84v-6.612h-2.014c-.532 0-.9-.101-1.102-.304-.203-.203-.304-.57-.304-1.102v-2.28c0-.532.1-.9.304-1.102.202-.203.57-.304 1.102-.304h2.014V7.086c0-.532.1-.9.304-1.102.228-.203.595-.304 1.102-.304h2.964zm8.412 12.426c0-2.736.785-4.826 2.356-6.27 1.57-1.444 3.825-2.166 6.764-2.166 3.014 0 5.294.76 6.84 2.28 1.545 1.495 2.318 3.407 2.318 5.738v2.318c0 1.267-.66 1.9-1.976 1.9H63.427v.95c0 2.001 1.14 3.002 3.42 3.002 1.646 0 2.85-.507 3.61-1.52.329-.456.633-.722.912-.798.304-.076.734.025 1.292.304l1.862.95c.988.507 1.19 1.254.608 2.242-1.47 2.356-4.256 3.534-8.36 3.534-3.116 0-5.41-.76-6.878-2.28-1.47-1.545-2.204-3.597-2.204-6.156v-4.028zm12.502-.95c0-1.95-1.128-2.926-3.382-2.926-2.255 0-3.382.975-3.382 2.926v.608h6.764v-.608zm11.892 6.688c1.09 0 1.837.215 2.242.646.431.405.646 1.153.646 2.242v.722c0 1.09-.215 1.837-.646 2.242-.405.405-1.152.608-2.242.608h-.646c-1.089 0-1.836-.203-2.242-.608-.405-.405-.608-1.153-.608-2.242v-.722c0-1.09.203-1.837.608-2.242.406-.43 1.153-.646 2.242-.646h.646zm19.874-13.11c1.85-.71 3.978-1.064 6.384-1.064 5.219 0 7.828 2.622 7.828 7.866v11.058c0 .532-.101.9-.304 1.102-.202.203-.57.304-1.102.304h-2.926c-.532 0-.899-.101-1.102-.304-.202-.203-.304-.57-.304-1.102V17.688c0-1.875-.962-2.812-2.888-2.812a9.53 9.53 0 00-2.622.38c.152.684.228 1.457.228 2.318v11.02c0 .532-.101.9-.304 1.102-.202.203-.57.304-1.102.304h-2.926c-.532 0-.899-.101-1.102-.304-.202-.203-.304-.57-.304-1.102V17.688c0-1.875-.962-2.812-2.888-2.812-.684 0-1.431.101-2.242.304-.101 0-.152.076-.152.228v13.186c0 .532-.101.9-.304 1.102-.202.203-.57.304-1.102.304h-2.926c-.532 0-.899-.101-1.102-.304-.202-.203-.304-.57-.304-1.102V13.242c0-.633.102-1.09.304-1.368.203-.304.608-.583 1.216-.836 2.204-.912 4.674-1.368 7.41-1.368 1.875 0 3.42.355 4.636 1.064zm17.677 2.888c1.393-2.635 4.104-3.952 8.132-3.952 5.649 0 8.474 2.673 8.474 8.018v9.652c0 .659-.101 1.14-.304 1.444-.177.279-.545.532-1.102.76-1.52.684-3.914 1.026-7.182 1.026-3.293 0-5.573-.507-6.84-1.52-1.241-1.013-1.862-2.597-1.862-4.75 0-2.33.671-3.952 2.014-4.864 1.368-.912 3.648-1.368 6.84-1.368.988 0 1.887.025 2.698.076v-.836c0-1.875-.975-2.812-2.926-2.812-1.393 0-2.445.469-3.154 1.406-.329.43-.608.697-.836.798-.203.076-.57.013-1.102-.19l-2.09-.874c-.963-.405-1.216-1.077-.76-2.014zm10.868 8.892c-.228 0-.722-.013-1.482-.038s-1.33-.038-1.71-.038c-1.013 0-1.71.165-2.09.494-.355.304-.532.747-.532 1.33 0 .608.177 1.077.532 1.406.355.304 1.026.456 2.014.456 1.343 0 2.343-.05 3.002-.152.177-.05.266-.14.266-.266v-3.192zM148.53 9.67h1.254c.506 0 .861.101 1.064.304.228.203.342.57.342 1.102v2.356c0 .507-.114.861-.342 1.064-.203.203-.558.304-1.064.304h-1.406c-1.014 0-1.913.089-2.698.266-.152.025-.228.114-.228.266v13.262c0 .532-.102.9-.304 1.102-.203.203-.558.304-1.064.304h-2.964c-.532 0-.9-.101-1.102-.304-.203-.203-.304-.57-.304-1.102V13.052c0-.633.101-1.09.304-1.368.202-.304.608-.583 1.216-.836 1.722-.684 4.154-1.077 7.296-1.178zm22.473 18.62c.329.608.418 1.051.266 1.33-.127.253-.532.38-1.216.38h-2.622c-.811 0-1.368-.076-1.672-.228-.304-.152-.583-.507-.836-1.064l-2.014-4.674c-.431-1.013-1.242-1.52-2.432-1.52h-1.33v6.042c0 .557-.102.937-.304 1.14-.203.203-.583.304-1.14.304h-2.85c-.558 0-.938-.101-1.14-.304-.203-.203-.304-.583-.304-1.14V3.324c0-.557.101-.937.304-1.14.202-.203.582-.304 1.14-.304h2.85c.557 0 .937.101 1.14.304.202.203.304.583.304 1.14v14.098h1.026l4.294-6.042c.329-.507.658-.823.988-.95.329-.127.899-.19 1.71-.19h2.546c1.418 0 1.735.557.95 1.672l-5.092 6.954c.76.532 1.469 1.444 2.128 2.736l3.306 6.688zm1.688-10.184c0-2.736.785-4.826 2.356-6.27 1.57-1.444 3.825-2.166 6.764-2.166 3.014 0 5.294.76 6.84 2.28 1.545 1.495 2.318 3.407 2.318 5.738v2.318c0 1.267-.659 1.9-1.976 1.9h-10.564v.95c0 2.001 1.14 3.002 3.42 3.002 1.646 0 2.85-.507 3.61-1.52.329-.456.633-.722.912-.798.304-.076.734.025 1.292.304l1.862.95c.988.507 1.19 1.254.608 2.242-1.47 2.356-4.256 3.534-8.36 3.534-3.116 0-5.409-.76-6.878-2.28-1.47-1.545-2.204-3.597-2.204-6.156v-4.028zm12.502-.95c0-1.95-1.128-2.926-3.382-2.926-2.255 0-3.382.975-3.382 2.926v.608h6.764v-.608zm14.97-11.476c.507 0 .862.101 1.064.304.203.203.304.57.304 1.102v3.154h3.534c.507 0 .862.101 1.064.304.203.203.304.57.304 1.102v2.28c0 .532-.101.9-.304 1.102-.202.203-.557.304-1.064.304h-3.534v6.384c0 1.419.254 2.369.76 2.85.507.456 1.419.684 2.736.684.532 0 .9.101 1.102.304.203.203.304.583.304 1.14v2.394c0 .557-.101.925-.304 1.102-.202.203-.57.317-1.102.342-3.318.101-5.687-.481-7.106-1.748-1.418-1.267-2.128-3.547-2.128-6.84v-6.612h-2.014c-.532 0-.899-.101-1.102-.304-.202-.203-.304-.57-.304-1.102v-2.28c0-.532.102-.9.304-1.102.203-.203.57-.304 1.102-.304h2.014V7.086c0-.532.102-.9.304-1.102.228-.203.596-.304 1.102-.304h2.964z" fill="#fff"/></svg>