<svg viewBox="0 0 40 40" xmlns="http://www.w3.org/2000/svg" xmlns:xlink="http://www.w3.org/1999/xlink"><style>:root&gt;svg{display:none}:root&gt;svg:target{display:block}</style><svg viewBox="0 0 24 24" id="cart"><path class="afsb-top" d="M9.4 20a1.4 1.4 0 11-2.8 0 1.4 1.4 0 012.8 0zm10 0a1.4 1.4 0 11-2.8 0 1.4 1.4 0 012.8 0z"/><path class="afsb-bottom" d="M2 2.4a.6.6 0 000 1.2V2.4zm2.5.6l.537-.268L4.87 2.4H4.5V3zM9 11.5l-.424.424.175.176H9v-.6zm11 5.1a.6.6 0 100-1.2v1.2zm.906-11.448l.511.315-.51-.315zm-3.613 5.872l-.511-.314.51.314zM2 3.6h2.5V2.4H2v1.2zm7 8.5h7.441v-1.2H9v1.2zm8.804-.761l3.613-5.872-1.022-.629-3.613 5.872 1.022.629zm-13.84-8.07l1 2 1.073-.537-1-2-1.074.536zM20.82 4.4H5.5v1.2h15.321V4.4zM7.618 16.6H20v-1.2H7.618v1.2zM4.963 5.268l3 6 1.074-.536-3-6-1.074.536zm3.113 6.156l.5.5.848-.848-.5-.5-.848.848zm-.816 3.397l1.777-3.553-1.074-.536-1.776 3.553 1.073.536zm.358.579a.4.4 0 01-.358-.579l-1.073-.537A1.6 1.6 0 007.618 16.6v-1.2zm13.8-9.933A.7.7 0 0020.82 4.4v1.2a.5.5 0 01-.426-.762l1.022.629zM16.44 12.1a1.6 1.6 0 001.363-.761l-1.022-.63a.4.4 0 01-.34.191v1.2z"/></svg><svg viewBox="0 0 24 24" id="close-icon" xmlns="http://www.w3.org/2000/svg"><path fill-rule="evenodd" clip-rule="evenodd" d="M3.393 3.393a1 1 0 011.415 0l15.799 15.8a1 1 0 01-1.415 1.414L3.393 4.807a1 1 0 010-1.414z"/><path fill-rule="evenodd" clip-rule="evenodd" d="M3.393 20.607a1 1 0 010-1.415l15.8-15.799a1 1 0 111.414 1.415l-15.8 15.799a1 1 0 01-1.414 0z"/></svg><svg viewBox="0 0 40 40" id="favorites-icon" xmlns="http://www.w3.org/2000/svg"><path d="M16.225 12C13.339 12 11 14.439 11 17.448c0 5.447 6.175 10.4 9.5 11.552 3.325-1.152 9.5-6.105 9.5-11.552C30 14.439 27.66 12 24.775 12c-1.767 0-3.33.915-4.275 2.315-.946-1.4-2.508-2.315-4.275-2.315z"/></svg></svg>